<svg width="33" height="33" viewBox="0 0 33 33" fill="none" xmlns="http://www.w3.org/2000/svg">
<g clip-path="url(#clip0)">
<path d="M16.5 2.0625C7.38633 2.0625 5.17676e-06 8.06309 5.17676e-06 15.4688C5.17676e-06 18.5367 1.28262 21.3469 3.40958 23.6092C2.44922 26.1486 0.451177 28.3014 0.41895 28.3271C-0.00644014 28.7783 -0.122456 29.4357 0.122466 30.0029C0.367388 30.5701 0.92813 30.9375 1.54688 30.9375C5.51075 30.9375 8.63672 29.2811 10.5123 27.9533C12.375 28.5398 14.3859 28.875 16.5 28.875C25.6137 28.875 33 22.8744 33 15.4688C33 8.06309 25.6137 2.0625 16.5 2.0625ZM16.5 25.7812C14.7791 25.7812 13.0775 25.517 11.4469 25.0014L9.98379 24.5373L8.72696 25.4268C7.80528 26.0777 6.542 26.8061 5.0209 27.2959C5.49141 26.516 5.94903 25.6395 6.30352 24.7049L6.98672 22.8938L5.65899 21.4887C4.49239 20.2447 3.09376 18.1887 3.09376 15.4688C3.09376 9.78398 9.10723 5.15625 16.5 5.15625C23.8928 5.15625 29.9063 9.78398 29.9063 15.4688C29.9063 21.1535 23.8928 25.7812 16.5 25.7812Z" fill="#E7A92F"/>
</g>
<defs>
<clipPath id="clip0">
<rect width="33" height="33" fill="white"/>
</clipPath>
</defs>
</svg>
