<svg width="41" height="35" viewBox="0 0 41 35" fill="none" xmlns="http://www.w3.org/2000/svg">
<path fill-rule="evenodd" clip-rule="evenodd" d="M4.1 0C3.34424 0 2.73334 0.515073 2.73334 1.15229V7.03125C3.17477 6.9552 3.63124 6.91373 4.1 6.91373C4.56877 6.91373 5.02524 6.95404 5.46667 7.03125V1.15229C5.46667 0.515073 4.85577 0 4.1 0ZM2.73334 22.9282V33.4163C2.73334 34.0536 3.34424 34.5686 4.1 34.5686C4.85577 34.5686 5.46667 34.0536 5.46667 33.4163V22.9282C5.02524 23.0043 4.56877 23.0458 4.1 23.0458C3.63124 23.0458 3.17477 23.0054 2.73334 22.9282ZM15.0333 0C14.2776 0 13.6667 0.515073 13.6667 1.15229V11.6404C14.1081 11.5643 14.5646 11.5229 15.0333 11.5229C15.5021 11.5229 15.9586 11.5632 16.4 11.6404V1.15229C16.4 0.515073 15.7891 0 15.0333 0ZM13.6667 27.5374V33.4163C13.6667 34.0536 14.2776 34.5686 15.0333 34.5686C15.7891 34.5686 16.4 34.0536 16.4 33.4163V27.5374C15.9586 27.6134 15.5021 27.6549 15.0333 27.6549C14.5646 27.6549 14.1081 27.6146 13.6667 27.5374ZM25.9667 0C25.2109 0 24.6 0.515073 24.6 1.15229V4.72667C25.0414 4.65062 25.4979 4.60915 25.9667 4.60915C26.4354 4.60915 26.8919 4.64947 27.3333 4.72667V1.15229C27.3333 0.515073 26.7224 0 25.9667 0ZM24.6 20.6237V33.4163C24.6 34.0536 25.2109 34.5686 25.9667 34.5686C26.7224 34.5686 27.3333 34.0536 27.3333 33.4163V20.6237C26.8919 20.6997 26.4354 20.7412 25.9667 20.7412C25.4979 20.7412 25.0414 20.7009 24.6 20.6237ZM36.9 0C36.1442 0 35.5333 0.515073 35.5333 1.15229V16.2495C35.9748 16.1735 36.4312 16.132 36.9 16.132C37.3688 16.132 37.8252 16.1723 38.2667 16.2495V1.15229C38.2667 0.515073 37.6558 0 36.9 0ZM35.5333 32.1465V33.4163C35.5333 34.0536 36.1442 34.5686 36.9 34.5686C37.6558 34.5686 38.2667 34.0536 38.2667 33.4163V32.1465C37.8252 32.2226 37.3688 32.2641 36.9 32.2641C36.4312 32.2641 35.9748 32.2237 35.5333 32.1465Z" fill="#2E5FE8" fill-opacity="0.6"/>
<path fill-rule="evenodd" clip-rule="evenodd" d="M4.1 9.2183C1.83543 9.2183 0 10.7658 0 12.6752V17.2843C0 19.1937 1.83543 20.7412 4.1 20.7412C6.36457 20.7412 8.2 19.1937 8.2 17.2843V12.6752C8.2 10.7658 6.36457 9.2183 4.1 9.2183ZM5.46667 17.2843C5.46667 17.9204 4.8544 18.4366 4.1 18.4366C3.3456 18.4366 2.73333 17.9204 2.73333 17.2843V12.6752C2.73333 12.0391 3.3456 11.5229 4.1 11.5229C4.8544 11.5229 5.46667 12.0391 5.46667 12.6752V17.2843ZM15.0333 13.8275C12.7688 13.8275 10.9333 15.375 10.9333 17.2843V21.8935C10.9333 23.8028 12.7688 25.3503 15.0333 25.3503C17.2979 25.3503 19.1333 23.8028 19.1333 21.8935V17.2843C19.1333 15.375 17.2979 13.8275 15.0333 13.8275ZM16.4 21.8935C16.4 22.5295 15.7877 23.0458 15.0333 23.0458C14.2789 23.0458 13.6667 22.5295 13.6667 21.8935V17.2843C13.6667 16.6483 14.2789 16.132 15.0333 16.132C15.7877 16.132 16.4 16.6483 16.4 17.2843V21.8935ZM25.9667 6.91373C23.7021 6.91373 21.8667 8.46125 21.8667 10.3706V14.9797C21.8667 16.8891 23.7021 18.4366 25.9667 18.4366C28.2312 18.4366 30.0667 16.8891 30.0667 14.9797V10.3706C30.0667 8.46125 28.2312 6.91373 25.9667 6.91373ZM27.3333 14.9797C27.3333 15.6158 26.7211 16.132 25.9667 16.132C25.2123 16.132 24.6 15.6158 24.6 14.9797V10.3706C24.6 9.73453 25.2123 9.2183 25.9667 9.2183C26.7211 9.2183 27.3333 9.73453 27.3333 10.3706V14.9797ZM36.9 18.4366C34.6354 18.4366 32.8 19.9841 32.8 21.8935V26.5026C32.8 28.412 34.6354 29.9595 36.9 29.9595C39.1646 29.9595 41 28.412 41 26.5026V21.8935C41 19.9841 39.1646 18.4366 36.9 18.4366ZM38.2667 26.5026C38.2667 27.1387 37.6544 27.6549 36.9 27.6549C36.1456 27.6549 35.5333 27.1387 35.5333 26.5026V21.8935C35.5333 21.2574 36.1456 20.7412 36.9 20.7412C37.6544 20.7412 38.2667 21.2574 38.2667 21.8935V26.5026Z" fill="#2E5FE8"/>
</svg>
