<svg width="19" height="18" viewBox="0 0 19 18" fill="none" xmlns="http://www.w3.org/2000/svg">
<path fill-rule="evenodd" clip-rule="evenodd" d="M18.0222 15.9571L18.02 15.9449V9.9306C18.0717 9.33029 17.8647 8.71401 17.3781 8.25501L9.50335 0.817509C9.06405 0.402602 8.48806 0.194885 7.91264 0.194885C7.33722 0.194885 6.76125 0.402602 6.32195 0.817509L0.697093 6.13001C-0.182071 6.95982 -0.182071 8.30548 0.697093 9.13476L8.57189 16.5723C9.01119 16.9872 9.58716 17.1949 10.1626 17.1949H16.9124C17.2083 17.1949 17.4951 17.0844 17.7078 16.8836C17.9654 16.6403 18.0824 16.296 18.0222 15.9571ZM10.1631 16.1319C9.86278 16.1319 9.58041 16.0214 9.36779 15.8206L1.493 8.38254C1.28038 8.18225 1.16338 7.91555 1.16338 7.63187C1.16338 7.34818 1.28038 7.08149 1.493 6.88068L7.11785 1.56818C7.33047 1.36737 7.61284 1.25687 7.91321 1.25687C8.21357 1.25687 8.49594 1.36737 8.70856 1.56818L16.5834 9.00568C16.8955 9.30052 16.9152 9.65805 16.8995 9.84399L16.8955 9.88702V9.93005V15.9443L16.8978 16.0447L16.913 16.1313H10.1631V16.1319ZM12.4131 9.75687C11.1706 9.75687 10.1631 10.7083 10.1631 11.8819C10.1631 13.0554 11.1706 14.0069 12.4131 14.0069C13.6556 14.0069 14.663 13.0554 14.663 11.8819C14.663 10.7083 13.6556 9.75687 12.4131 9.75687ZM12.4131 12.9444C11.7927 12.9444 11.2881 12.4678 11.2881 11.8819C11.2881 11.2959 11.7927 10.8194 12.4131 10.8194C13.0335 10.8194 13.5381 11.2959 13.5381 11.8819C13.5381 12.4678 13.0329 12.9444 12.4131 12.9444Z" fill="#E7A92F"/>
</svg>
