<svg width="20" height="20" viewBox="0 0 20 20" fill="none" xmlns="http://www.w3.org/2000/svg">
<path d="M16.875 3.75H15.7464L16.4844 4.33594L16.4239 5H16.875C17.5641 5 18.125 5.56031 18.125 6.25V13.75C18.125 14.4397 17.5641 15 16.875 15H10.625V15.625C10.625 15.9705 10.3455 16.25 10 16.25C9.65453 16.25 9.375 15.9705 9.375 15.625V15H3.125C2.43594 15 1.875 14.4397 1.875 13.75V6.25C1.875 5.56031 2.43594 5 3.125 5H3.70422L3.78906 4.49219L4.53125 3.75H3.125C1.74437 3.75 0.625 4.86937 0.625 6.25V13.75C0.625 15.1306 1.74437 16.25 3.125 16.25H8.24031C8.49906 16.9762 9.18641 17.5 10 17.5C10.8136 17.5 11.5008 16.9762 11.7597 16.25H16.875C18.2556 16.25 19.375 15.1306 19.375 13.75V6.25C19.375 4.86937 18.2556 3.75 16.875 3.75Z" fill="#2E5FE8"/>
<path d="M8.125 6.25H5.625V5H8.125V6.25Z" fill="#FFA726"/>
<path d="M8.125 8.75H5.625V7.5H8.125V8.75Z" fill="#FFA726"/>
<path d="M8.125 11.25H5.625V10H8.125V11.25Z" fill="#FFA726"/>
<path d="M14.375 6.25H11.875V5H14.375V6.25Z" fill="#FFA726"/>
<path d="M14.375 8.75H11.875V7.5H14.375V8.75Z" fill="#FFA726"/>
<path d="M14.375 11.25H11.875V10H14.375V11.25Z" fill="#FFA726"/>
<path d="M13.125 2.5C12.0447 2.5 10.9711 2.78938 10 3.33859C9.02891 2.78938 7.95531 2.5 6.875 2.5C5.55906 2.5 4.24312 2.90656 3.125 3.72187C3.125 6.26453 3.125 13.8672 3.125 13.9062C3.125 14.2517 3.40453 14.5312 3.75 14.5312C3.81172 14.5312 5.91125 13.7781 6.875 13.7781C7.86797 13.7781 8.8525 14.032 9.75953 14.4983L9.76984 14.4922L9.77047 14.4909C9.84187 14.5191 9.91813 14.5373 10 14.5373C10.0819 14.5373 10.1581 14.5191 10.2295 14.4909L10.2302 14.4922L10.2405 14.4983C11.1475 14.032 12.132 13.7781 13.125 13.7781C14.0887 13.7781 16.1883 14.5312 16.25 14.5312C16.5955 14.5312 16.875 14.2517 16.875 13.9062C16.875 13.8672 16.875 6.26469 16.875 3.72187C15.7569 2.90656 14.4409 2.5 13.125 2.5ZM4.375 12.9444V4.40547C5.13672 3.97703 5.99 3.75359 6.875 3.75359C7.76 3.75359 8.61328 3.97703 9.375 4.40547C9.375 6.41844 9.375 10.9314 9.375 12.9442C8.57844 12.6659 7.73688 12.5242 6.875 12.5242C6.01312 12.5242 5.17156 12.6661 4.375 12.9444ZM15.625 12.9444C14.8284 12.6661 13.9869 12.5244 13.125 12.5244C12.2631 12.5244 11.4216 12.6659 10.625 12.9444C10.625 10.9314 10.625 6.41844 10.625 4.40562C11.3867 3.97719 12.24 3.75375 13.125 3.75375C14.01 3.75375 14.8633 3.97719 15.625 4.40562V12.9444Z" fill="#E7A92F"/>
</svg>
