<svg width="15" height="15" viewBox="0 0 15 15" fill="none" xmlns="http://www.w3.org/2000/svg">
<path d="M11.7188 5.625H9.72061L12.4988 1.45746C12.6906 1.17 12.7084 0.800156 12.5454 0.495234C12.3821 0.19043 12.0644 0 11.7188 0H7.03127C6.69483 0 6.38405 0.180352 6.21741 0.472383L2.46741 7.03488C2.3017 7.32516 2.30264 7.68129 2.47057 7.97051C2.63803 8.25984 2.94706 8.4375 3.28127 8.4375H6.35334L3.40491 13.5974C3.17194 14.0048 3.2767 14.5221 3.64983 14.8077C3.8187 14.9368 4.0192 15 4.21842 15C4.46018 15 4.69995 14.9075 4.8817 14.7253L12.3817 7.22531C12.6499 6.95707 12.7301 6.55418 12.5849 6.20355C12.4397 5.85387 12.0978 5.625 11.7188 5.625ZM4.21877 14.0625L7.63186 8.08957C7.63186 8.08957 7.63186 8.00262 7.63186 7.96875C7.63186 7.70965 7.42221 7.5 7.16311 7.5H3.28127L7.03127 0.9375H11.7188L8.48651 5.78613C8.48651 5.78613 8.37893 5.9802 8.37893 6.09375C8.37893 6.35285 8.58858 6.5625 8.84768 6.5625H11.7188L4.21877 14.0625Z" fill="#FFA726"/>
</svg>
