<svg width="44" height="48" viewBox="0 0 44 44" fill="none" xmlns="http://www.w3.org/2000/svg">
<path d="M22 43.3125C33.7734 43.3125 43.3125 33.7734 43.3125 22C43.3125 10.2266 33.7734 0.6875 22 0.6875C10.2266 0.6875 0.6875 10.2266 0.6875 22C0.6875 33.7734 10.2266 43.3125 22 43.3125ZM22 4.8125C31.4961 4.8125 39.1875 12.5039 39.1875 22C39.1875 31.4961 31.4961 39.1875 22 39.1875C12.5039 39.1875 4.8125 31.4961 4.8125 22C4.8125 12.5039 12.5039 4.8125 22 4.8125ZM23.7188 33H20.2812C19.7141 33 19.25 32.5359 19.25 31.9688V22H13.4922C12.5727 22 12.1172 20.8914 12.7617 20.2383L21.2695 11.7305C21.6734 11.3266 22.3266 11.3266 22.7305 11.7305L31.2383 20.2383C31.8914 20.8914 31.4273 22 30.5078 22H24.75V31.9688C24.75 32.5359 24.2859 33 23.7188 33Z" fill="#E7A92F"/>
</svg>
