<svg width="19" height="19" viewBox="0 0 19 19" fill="none" xmlns="http://www.w3.org/2000/svg">
<path d="M2.57642 8.75259C2.87108 4.55788 5.92937 1.25926 9.6587 1.25926C13.1544 1.25926 16.0605 4.15752 16.6536 7.97528C16.6899 8.20935 16.7176 8.44686 16.7362 8.68739" stroke="#FFA726" stroke-miterlimit="10" stroke-linecap="round" stroke-linejoin="round"/>
<path d="M16.6536 10.8597C16.0605 14.6774 13.1544 17.5757 9.65872 17.5757C6.15599 17.5757 3.24522 14.6657 2.66028 10.8365" stroke="#FFA726" stroke-miterlimit="10" stroke-linecap="round" stroke-linejoin="round"/>
<path d="M6.86475 11.9961C7.31011 13.2692 8.39074 14.1704 9.65874 14.1704C10.9267 14.1704 12.0073 13.2692 12.4527 11.9961" stroke="#1E212B" stroke-opacity="0.8" stroke-miterlimit="10" stroke-linecap="round" stroke-linejoin="round"/>
<path d="M7 11.5926C7.4432 11.5926 8.5186 11.5926 9.78046 11.5926C11.0423 11.5926 12.1177 11.5926 12.5609 11.5926" stroke="#1E212B" stroke-opacity="0.8" stroke-miterlimit="10" stroke-linecap="round" stroke-linejoin="round"/>
<path d="M7.49615 8.35336C7.49615 7.56978 6.94288 6.93454 6.26041 6.93454C5.57793 6.93454 5.02466 7.56978 5.02466 8.35336" stroke="#1E212B" stroke-opacity="0.8" stroke-miterlimit="10" stroke-linecap="round" stroke-linejoin="round"/>
<path d="M14.2928 8.35336C14.2928 7.56978 13.7395 6.93454 13.057 6.93454C12.3746 6.93454 11.8213 7.56978 11.8213 8.35336" stroke="#1E212B" stroke-opacity="0.8" stroke-miterlimit="10" stroke-linecap="round" stroke-linejoin="round"/>
<path d="M2.65996 10.8311C2.62474 10.8345 2.58912 10.8363 2.55313 10.8363C1.87066 10.8363 1.31738 10.2011 1.31738 9.41748C1.31738 8.6339 1.87066 7.99866 2.55313 7.99866C2.58804 7.99866 2.62261 8.00032 2.65678 8.00359" stroke="#FFA726" stroke-miterlimit="10" stroke-linecap="round" stroke-linejoin="round"/>
<path d="M16.6573 10.8311C16.6926 10.8345 16.7282 10.8363 16.7642 10.8363C17.4466 10.8363 17.9999 10.2011 17.9999 9.41748C17.9999 8.6339 17.4466 7.99866 16.7642 7.99866C16.7293 7.99866 16.6947 8.00032 16.6605 8.00359" stroke="#FFA726" stroke-miterlimit="10" stroke-linecap="round" stroke-linejoin="round"/>
</svg>
